<svg width="60" height="60" viewBox="0 0 60 60" fill="none" xmlns="http://www.w3.org/2000/svg">
<circle cx="30" cy="30" r="30" fill="#4B62D4"/>
<path fill-rule="evenodd" clip-rule="evenodd" d="M30 16.6673C29.0795 16.6673 28.3333 17.4135 28.3333 18.334C28.3333 19.2545 29.0795 20.0007 30 20.0007C30.9205 20.0007 31.6667 19.2545 31.6667 18.334C31.6667 17.4135 30.9205 16.6673 30 16.6673ZM25 18.334C25 15.5726 27.2386 13.334 30 13.334C32.7614 13.334 35 15.5726 35 18.334C35 21.0954 32.7614 23.334 30 23.334C27.2386 23.334 25 21.0954 25 18.334Z" fill="white"/>
<path fill-rule="evenodd" clip-rule="evenodd" d="M16.6656 29.168C17.5861 29.1676 18.3326 29.9135 18.333 30.8339L18.3362 38.5312L27.1531 42.696C28.0431 43.1164 29.0153 43.3346 29.9996 43.3346C30.9839 43.3346 31.956 43.1165 32.846 42.696L41.6663 38.5297V30.8346C41.6663 29.9142 42.4125 29.168 43.333 29.168C44.2534 29.168 44.9996 29.9142 44.9996 30.8346V38.7127C45.0156 39.1303 44.9408 39.5466 44.7802 39.9329C44.5108 40.5812 44.0109 41.1068 43.3768 41.4082L43.3731 41.41L34.2699 45.7099C34.2699 45.7099 34.2699 45.7099 34.2699 45.7099C32.9347 46.3407 31.4763 46.6679 29.9996 46.6679C28.523 46.6679 27.0646 46.3407 25.7294 45.71C25.7294 45.71 25.7295 45.71 25.7294 45.71L16.6242 41.409C16.1046 41.1628 15.672 40.7648 15.3834 40.2675C15.1079 39.7927 14.9761 39.2489 15.0029 38.7018L14.9996 30.8353C14.9992 29.9149 15.7451 29.1684 16.6656 29.168Z" fill="white"/>
<path fill-rule="evenodd" clip-rule="evenodd" d="M29.9998 20C30.9203 20 31.6665 20.7462 31.6665 21.6667V24.3047C32.4137 24.4296 33.1502 24.639 33.8615 24.9331L43.2452 28.8172C43.2466 28.8177 43.248 28.8183 43.2493 28.8189C43.7562 29.0269 44.1915 29.3781 44.502 29.8296C44.8134 30.2823 44.9857 30.8161 44.9978 31.3654C45.01 31.9147 44.8614 32.4556 44.5703 32.9216C44.2799 33.3865 43.8603 33.7566 43.363 33.9868C43.3618 33.9874 43.3605 33.988 43.3593 33.9885L34.2616 38.2243C32.9268 38.8449 31.4718 39.1668 29.9998 39.1668C28.5278 39.1668 27.0736 38.8452 25.7388 38.2246L16.64 33.9884C16.1414 33.7598 15.7204 33.3906 15.4285 32.926C15.135 32.4589 14.9851 31.916 14.9973 31.3645C15.0094 30.8131 15.1831 30.2773 15.4969 29.8236C15.8106 29.3699 16.2506 29.0183 16.7623 28.8123C16.7795 28.8053 16.7968 28.7987 16.8142 28.7924L26.1374 24.9334C26.8487 24.6393 27.5859 24.4296 28.3331 24.3047V21.6667C28.3331 20.7462 29.0793 20 29.9998 20ZM28.3331 27.7079C28.0211 27.7871 27.7133 27.8889 27.4122 28.0133L19.0966 31.4553L27.1441 35.202C28.0387 35.6179 29.0133 35.8334 29.9998 35.8334C30.9863 35.8334 31.9609 35.6179 32.8555 35.202L40.903 31.4553L32.5881 28.0136C32.287 27.8892 31.9785 27.7871 31.6665 27.7079V31.6667C31.6665 32.5871 30.9203 33.3333 29.9998 33.3333C29.0793 33.3333 28.3331 32.5871 28.3331 31.6667V27.7079Z" fill="white"/>
</svg>
