<svg width="60" height="60" viewBox="0 0 60 60" fill="none" xmlns="http://www.w3.org/2000/svg">
<circle cx="30" cy="30" r="30" fill="#4B62D4"/>
<path fill-rule="evenodd" clip-rule="evenodd" d="M13.3335 28.9231C13.3335 20.6364 21.0396 14.3164 30.0035 14.3164C38.9649 14.3164 46.6668 20.6371 46.6668 28.9231C46.6668 33.0265 44.7493 36.6846 41.7387 39.3029C42.1808 40.0778 42.79 40.9292 43.3218 41.5815C43.3326 41.5947 43.3432 41.6081 43.3536 41.6216C43.8972 42.3317 44.19 43.3739 43.6732 44.3598C43.173 45.3139 42.1898 45.6814 41.3402 45.6814C38.468 45.6814 35.3312 44.5869 33.0472 43.2201C31.6963 43.2942 30.6738 43.3331 30.0002 43.3331C21.0714 43.3331 13.3335 37.2431 13.3335 28.9231ZM38.1159 39.4214C38.4428 40.3268 39.0262 41.3195 39.6181 42.1865C37.7641 41.8581 35.8276 41.0641 34.3882 40.1288C34.0904 39.9353 33.7385 39.842 33.3839 39.8625C31.7726 39.9557 30.6545 39.9997 30.0002 39.9997C22.3622 39.9997 16.6668 34.8964 16.6668 28.9231C16.6668 22.923 22.4008 17.6497 30.0035 17.6497C37.6021 17.6497 43.3335 22.9224 43.3335 28.9231C43.3335 32.1651 41.7097 35.1439 38.9877 37.25C38.8956 37.3204 38.8216 37.3755 38.7716 37.4123L38.7486 37.4291C38.2953 37.7302 38.0035 38.2447 38.0035 38.8181V38.8197C38.0035 39.0291 38.0427 39.2326 38.1159 39.4214Z" fill="white"/>
<path fill-rule="evenodd" clip-rule="evenodd" d="M21.3217 31.3221C21.9725 30.6713 23.0278 30.6713 23.6787 31.3221C27.1945 34.8379 32.8059 34.8379 36.3217 31.3221C36.9725 30.6713 38.0278 30.6713 38.6787 31.3221C39.3295 31.973 39.3295 33.0283 38.6787 33.6792C33.8611 38.4967 26.1392 38.4967 21.3217 33.6792C20.6708 33.0283 20.6708 31.973 21.3217 31.3221Z" fill="white"/>
</svg>
