<svg width="37" height="36" viewBox="0 0 37 36" fill="none" xmlns="http://www.w3.org/2000/svg">
<path d="M14 19.5C14.8284 19.5 15.5 18.8284 15.5 18C15.5 17.1716 14.8284 16.5 14 16.5C13.1716 16.5 12.5 17.1716 12.5 18C12.5 18.8284 13.1716 19.5 14 19.5Z" stroke="white" stroke-width="3" stroke-linecap="round" stroke-linejoin="round"/>
<path d="M23 19.5C23.8284 19.5 24.5 18.8284 24.5 18C24.5 17.1716 23.8284 16.5 23 16.5C22.1716 16.5 21.5 17.1716 21.5 18C21.5 18.8284 22.1716 19.5 23 19.5Z" stroke="white" stroke-width="3" stroke-linecap="round" stroke-linejoin="round"/>
<path d="M11.75 11.25C17 9.75 20 9.75 25.25 11.25M11 24.75C16.25 26.25 20.75 26.25 26 24.75" stroke="white" stroke-width="3" stroke-linecap="round" stroke-linejoin="round"/>
<path d="M23.7502 25.5C23.7502 27 26.0002 30 26.7502 30C29.0002 30 30.9997 27.4995 32.0002 25.5C33.0007 22.9995 32.7502 16.7505 29.7502 8.25C27.5647 6.7275 25.2502 6.24 23.0002 6L21.5002 9.75M13.2502 25.5C13.2502 27 11.2162 30 10.5022 30C8.35867 30 6.45517 27.4995 5.50267 25.5C4.55017 22.9995 4.78867 16.7505 7.64467 8.25C9.72667 6.7275 11.8177 6.24 14.0002 6L15.5002 9.75" stroke="white" stroke-width="3" stroke-linecap="round" stroke-linejoin="round"/>
</svg>
