<svg width="33" height="32" viewBox="0 0 33 32" fill="none" xmlns="http://www.w3.org/2000/svg">
<path d="M21.8335 5.33398H11.1668C8.22131 5.33398 5.8335 7.7218 5.8335 10.6673V21.334C5.8335 24.2795 8.22131 26.6673 11.1668 26.6673H21.8335C24.779 26.6673 27.1668 24.2795 27.1668 21.334V10.6673C27.1668 7.7218 24.779 5.33398 21.8335 5.33398Z" stroke="white" stroke-width="3" stroke-linecap="round" stroke-linejoin="round"/>
<path d="M16.5 20C18.7091 20 20.5 18.2091 20.5 16C20.5 13.7909 18.7091 12 16.5 12C14.2909 12 12.5 13.7909 12.5 16C12.5 18.2091 14.2909 20 16.5 20Z" stroke="white" stroke-width="3" stroke-linecap="round" stroke-linejoin="round"/>
<path d="M22.5 10V10.001" stroke="white" stroke-width="3" stroke-linecap="round" stroke-linejoin="round"/>
</svg>
