<svg width="60" height="60" viewBox="0 0 60 60" fill="none" xmlns="http://www.w3.org/2000/svg">
<circle cx="30" cy="30" r="30" fill="#4B62D4"/>
<path fill-rule="evenodd" clip-rule="evenodd" d="M32.1819 13.4158C32.8684 13.639 33.3332 14.2789 33.3332 15.0008V25.0008H41.6665C42.2934 25.0008 42.8672 25.3525 43.1517 25.9111C43.4362 26.4698 43.3831 27.1407 43.0144 27.6477L29.6811 45.981C29.2565 46.5649 28.5043 46.809 27.8178 46.5857C27.1313 46.3625 26.6665 45.7227 26.6665 45.0008V35.0008H18.3332C17.7063 35.0008 17.1324 34.649 16.848 34.0904C16.5635 33.5318 16.6166 32.8608 16.9853 32.3538L30.3186 14.0205C30.7432 13.4367 31.4954 13.1926 32.1819 13.4158ZM21.6061 31.6674H28.3332C29.2537 31.6674 29.9998 32.4136 29.9998 33.3341V39.8755L38.3936 28.3341H31.6665C30.746 28.3341 29.9998 27.5879 29.9998 26.6674V20.1261L21.6061 31.6674Z" fill="white"/>
</svg>
