<svg width="60" height="60" viewBox="0 0 60 60" fill="none" xmlns="http://www.w3.org/2000/svg">
<circle cx="30" cy="30" r="30" fill="#4B62D4"/>
<path fill-rule="evenodd" clip-rule="evenodd" d="M25.0003 16.6673C22.2389 16.6673 20.0003 18.9059 20.0003 21.6673C20.0003 24.4287 22.2389 26.6673 25.0003 26.6673C27.7617 26.6673 30.0003 24.4287 30.0003 21.6673C30.0003 18.9059 27.7617 16.6673 25.0003 16.6673ZM16.667 21.6673C16.667 17.0649 20.398 13.334 25.0003 13.334C29.6027 13.334 33.3337 17.0649 33.3337 21.6673C33.3337 26.2697 29.6027 30.0007 25.0003 30.0007C20.398 30.0007 16.667 26.2697 16.667 21.6673Z" fill="white"/>
<path fill-rule="evenodd" clip-rule="evenodd" d="M35.0522 14.8045C35.2806 13.9127 36.1885 13.375 37.0802 13.6033C38.8728 14.0622 40.4616 15.1047 41.5961 16.5664C42.7307 18.0281 43.3466 19.8258 43.3466 21.6762C43.3466 23.5265 42.7307 25.3243 41.5961 26.786C40.4616 28.2476 38.8728 29.2901 37.0802 29.7491C36.1885 29.9774 35.2806 29.4396 35.0522 28.5479C34.8239 27.6562 35.3617 26.7482 36.2534 26.5199C37.3289 26.2446 38.2822 25.6191 38.963 24.742C39.6437 23.865 40.0132 22.7864 40.0132 21.6762C40.0132 20.566 39.6437 19.4873 38.963 18.6103C38.2822 17.7333 37.329 17.1078 36.2534 16.8324C35.3617 16.6041 34.8239 15.6962 35.0522 14.8045ZM21.6668 36.6678C20.3407 36.6678 19.069 37.1946 18.1313 38.1323C17.1936 39.07 16.6668 40.3418 16.6668 41.6678V45.0012C16.6668 45.9217 15.9206 46.6678 15.0002 46.6678C14.0797 46.6678 13.3335 45.9217 13.3335 45.0012V41.6678C13.3335 39.4577 14.2115 37.3381 15.7743 35.7753C17.3371 34.2125 19.4567 33.3345 21.6668 33.3345H28.3335C30.5436 33.3345 32.6633 34.2125 34.2261 35.7753C35.7889 37.3381 36.6668 39.4577 36.6668 41.6678V45.0012C36.6668 45.9217 35.9206 46.6678 35.0002 46.6678C34.0797 46.6678 33.3335 45.9217 33.3335 45.0012V41.6678C33.3335 40.3418 32.8067 39.07 31.869 38.1323C30.9313 37.1946 29.6596 36.6678 28.3335 36.6678H21.6668ZM38.3864 34.8345C38.6165 33.9433 39.5256 33.4073 40.4168 33.6374C42.1977 34.0972 43.7764 35.1333 44.9069 36.5841C46.0375 38.0349 46.6562 39.819 46.6668 41.6583L46.6669 41.6678L46.6668 45.0012C46.6668 45.9217 45.9206 46.6678 45.0002 46.6678C44.0797 46.6678 43.3335 45.9217 43.3335 45.0012V41.6728C43.3261 40.5709 42.955 39.5022 42.2776 38.6329C41.5993 37.7624 40.6521 37.1408 39.5835 36.8649C38.6923 36.6348 38.1563 35.7258 38.3864 34.8345Z" fill="white"/>
</svg>
