<svg width="33" height="32" viewBox="0 0 33 32" fill="none" xmlns="http://www.w3.org/2000/svg">
<path d="M29.8332 5.34668C28.4998 6.00002 27.1932 6.26535 25.8332 6.66668C24.3385 4.98002 22.1225 4.88668 19.9932 5.68402C17.8638 6.48135 16.4692 8.43068 16.4998 10.6667V12C12.1732 12.1107 8.31984 10.14 5.83317 6.66668C5.83317 6.66668 0.257171 16.5774 11.1665 21.3334C8.6705 22.996 6.18117 24.1174 3.1665 24C7.57717 26.404 12.3838 27.2307 16.5452 26.0227C21.3185 24.636 25.2412 21.0587 26.7465 15.7C27.1956 14.0702 27.4185 12.3865 27.4092 10.696C27.4065 10.364 29.4225 7.00002 29.8332 5.34535V5.34668Z" stroke="white" stroke-width="3" stroke-linecap="round" stroke-linejoin="round"/>
</svg>
