<svg width="90" height="90" viewBox="0 0 90 90" fill="none" xmlns="http://www.w3.org/2000/svg">
<path d="M86.6265 19.2649C86.5735 19.053 86.493 18.8496 86.404 18.6504L86.2705 18.3537L86.1073 18.0804C85.6645 17.3557 85.0817 16.7984 84.4799 16.4C84.3316 16.2898 84.1769 16.2114 84.0265 16.1203L83.7976 15.9868L83.5645 15.8787C83.4098 15.8067 83.2551 15.7325 83.1026 15.6689L82.6364 15.4952C81.4031 15.0502 80.1699 14.8785 78.9557 14.7705C77.7394 14.6815 76.54 14.6836 75.347 14.7768C76.4934 15.1222 77.6207 15.4719 78.7014 15.902C79.2417 16.1118 79.7694 16.3406 80.2737 16.5907C80.5259 16.7157 80.7674 16.8556 81.0132 16.9806L81.3629 17.1946C81.4794 17.2645 81.5938 17.3345 81.6977 17.4129L82.0219 17.6417C82.1236 17.7222 82.2168 17.807 82.3164 17.8854L82.4605 18.0062L82.5877 18.1355C82.6703 18.2202 82.7678 18.2986 82.8356 18.3876C83.1513 18.7288 83.342 19.0954 83.4289 19.4217C83.5073 19.7544 83.5221 20.0447 83.431 20.3625C83.3569 20.6761 83.1852 21.0215 82.9585 21.3712C82.5029 22.081 81.7994 22.8036 81.009 23.4584C80.2101 24.1174 79.3413 24.7489 78.4174 25.3274C76.5697 26.4886 74.5799 27.5311 72.5457 28.4911C68.4623 30.4066 64.1883 32.0383 59.8613 33.5174C55.53 34.9943 51.1309 36.306 46.6959 37.4905C43.5809 38.3148 40.449 39.0819 37.3044 39.7706C36.1093 37.6473 35.4375 35.0663 35.4375 32.2226V32.0065C35.4375 24.8294 40.3176 18.9576 46.9332 18.9576C51.9213 18.9576 55.0659 21.2419 57.8842 25.1557L71.8739 14.7175C66.8858 6.77967 58.8611 1.56055 46.823 1.56055C28.2816 1.56055 15.3769 15.5863 15.3769 32.2226V32.4409C15.3769 36.0877 16.0041 39.601 17.1653 42.8685C15.7837 42.9575 14.4042 43.0084 13.0396 43.0063C11.9292 43.0084 10.8316 42.9491 9.75725 42.8474C8.68291 42.7478 7.63612 42.5698 6.67621 42.2964C5.72053 42.0294 4.85597 41.6289 4.32622 41.1204C4.05923 40.8661 3.86428 40.5864 3.75621 40.2325C3.65026 39.8829 3.62483 39.4527 3.70323 38.9823C3.7774 38.5119 3.96599 38.0181 4.18637 37.5244C4.40674 37.0286 4.69705 36.5433 5.01066 36.0623C5.63577 35.1003 6.38802 34.1827 7.16993 33.2758C6.11043 33.8373 5.10178 34.4985 4.14611 35.2825C3.67357 35.6787 3.21374 36.1089 2.79418 36.6005C2.37037 37.0921 1.98048 37.6367 1.67746 38.2851C1.37656 38.9314 1.16042 39.6922 1.18161 40.5164C1.19432 41.3386 1.46344 42.1883 1.88724 42.8876C2.3068 43.5911 2.85987 44.1548 3.42988 44.6167C3.99989 45.0829 4.59957 45.458 5.20349 45.7843C7.634 47.0388 10.1196 47.6236 12.584 48.0516C15.0505 48.4733 17.5128 48.6556 19.9603 48.7255C24.8552 48.8548 29.7056 48.486 34.4946 47.8249C39.2836 47.1595 44.0132 46.1784 48.6708 44.9367C53.3284 43.6907 57.9203 42.1799 62.4083 40.3575C66.8921 38.5309 71.2827 36.4119 75.4529 33.7865C77.5338 32.4684 79.5681 31.0339 81.4667 29.3387C82.4139 28.4889 83.342 27.5862 84.1896 26.5564C84.6113 26.0394 85.0161 25.4927 85.3911 24.9015C85.7619 24.306 86.1116 23.6724 86.3722 22.9477C86.6286 22.2294 86.8236 21.4284 86.8087 20.5596C86.8066 20.1316 86.7452 19.6887 86.6265 19.2649Z" fill="#F4F6FC"/>
<path d="M63.3941 43.6176C58.906 45.4421 54.3141 46.9508 49.6565 48.1968C44.9989 49.4385 40.2693 50.4196 35.4803 51.0871C31.1469 51.6847 26.7627 52.0407 22.3403 52.0089C27.8498 58.6923 36.2368 62.996 46.0648 62.996C58.9696 62.996 66.776 57.5586 72.1985 49.5127L63.8348 43.4375C63.6865 43.4968 63.5403 43.5583 63.3941 43.6176Z" fill="#F4F6FC"/>
<path d="M53 32.6298C53 32.817 52.9896 33.0043 52.9729 33.1851C50.7016 33.9106 48.4116 34.5809 46.1091 35.2064C45.1068 35.4809 44.1004 35.7447 43.0919 36C42.4063 35.0596 42 33.8915 42 32.6298C42 29.5213 44.4609 27 47.499 27C50.537 27 53 29.5213 53 32.6298Z" fill="#233DFF"/>
<path d="M9.73703 80.0377C11.7459 80.0377 13.3584 79.2812 14.3438 78.0289C14.4455 77.9081 14.4052 77.7916 14.2484 77.6835L12.4112 76.4587C12.2692 76.357 12.1463 76.3824 12.0383 76.5265C11.5212 77.1516 10.7245 77.5267 9.73703 77.5267C8.01003 77.5267 6.86577 76.3824 6.86577 74.5325C6.86577 72.6826 8.01003 71.5384 9.73703 71.5384C10.7245 71.5384 11.5212 71.9134 12.0383 72.5385C12.1463 72.6826 12.2692 72.7081 12.4112 72.6064L14.2484 71.3816C14.4052 71.2735 14.4328 71.1442 14.3162 71.0086C13.316 69.769 11.7119 69.0273 9.73703 69.0273C6.33601 69.0273 4.07715 71.1718 4.07715 74.5325C4.07715 77.8933 6.33601 80.0377 9.73703 80.0377Z" fill="#F4F6FC"/>
<path d="M22.234 69.3054C22.0242 68.8774 21.6916 68.8774 21.4797 69.3054L16.6907 79.4237C16.6017 79.6208 16.6907 79.7564 16.8941 79.7564H19.35C19.5005 79.7564 19.6149 79.6737 19.67 79.5318L20.0091 78.6545H23.7046L24.0458 79.5318C24.0988 79.6737 24.2153 79.7564 24.3636 79.7564H26.8217C27.0251 79.7564 27.1141 79.6208 27.0251 79.4237L22.234 69.3054ZM21.8611 73.9397L22.8888 76.5651H20.827L21.8611 73.9397Z" fill="#F4F6FC"/>
<path d="M32.4314 79.7576C32.6158 79.7576 32.7112 79.6622 32.7112 79.4779V76.1913H35.0929C37.0721 76.1913 38.2842 74.8373 38.2842 72.6674C38.2842 70.8789 37.4811 69.3066 34.5335 69.3066H30.1938C30.0094 69.3066 29.9141 69.402 29.9141 69.5864V79.4779C29.9141 79.6622 30.0094 79.7576 30.1938 79.7576H32.4314ZM32.7112 71.6736H34.0504C34.6098 71.6736 35.4998 71.6736 35.4998 72.6949C35.4998 73.8244 34.4382 73.8244 34.0504 73.8244H32.7112V71.6736Z" fill="#F4F6FC"/>
<path d="M43.9558 79.7576C44.1381 79.7576 44.2334 79.6622 44.2334 79.4779V69.5864C44.2334 69.402 44.1381 69.3066 43.9558 69.3066H41.7309C41.5465 69.3066 41.4512 69.402 41.4512 69.5864V79.4779C41.4512 79.6622 41.5465 79.7576 41.7309 79.7576H43.9558Z" fill="#F4F6FC"/>
<path d="M52.0847 79.7576C52.2606 79.7576 52.3623 79.6622 52.3623 79.4779V71.6736H54.4665C54.6487 71.6736 54.7441 71.5782 54.7441 71.396V69.5864C54.7441 69.402 54.6487 69.3066 54.4665 69.3066H47.4568C47.2746 69.3066 47.1792 69.402 47.1792 69.5864V71.396C47.1792 71.5782 47.2746 71.6736 47.4568 71.6736H49.5588V79.4779C49.5588 79.6622 49.6627 79.7576 49.8386 79.7576H52.0847Z" fill="#F4F6FC"/>
<path d="M62.423 69.3054C62.2132 68.8774 61.8805 68.8774 61.6686 69.3054L56.8797 79.4237C56.7907 79.6208 56.8797 79.7564 57.0831 79.7564H59.539C59.6895 79.7564 59.8039 79.6737 59.859 79.5318L60.198 78.6545H63.8936L64.2347 79.5318C64.2877 79.6737 64.4043 79.7564 64.5526 79.7564H67.0106C67.2141 79.7564 67.3031 79.6208 67.2141 79.4237L62.423 69.3054ZM62.05 73.9397L63.0778 76.5651H61.016L62.05 73.9397Z" fill="#F4F6FC"/>
<path d="M76.0372 79.7576C76.2216 79.7576 76.3169 79.6622 76.3169 79.4779V77.6683C76.3169 77.486 76.2216 77.3907 76.0372 77.3907H72.8863V69.5864C72.8863 69.402 72.7909 69.3066 72.6087 69.3066H70.3837C70.1994 69.3066 70.104 69.402 70.104 69.5864V79.4779C70.104 79.6622 70.1994 79.7576 70.3837 79.7576H76.0372Z" fill="#F4F6FC"/>
<path d="M83.6895 79.7576C86.779 79.7576 87.5206 78.1853 87.5206 76.8185C87.5206 75.7166 87.0036 74.8245 85.622 74.3753C86.4993 73.9324 87.0841 73.123 87.0841 71.966C87.0841 70.5187 86.2535 69.3066 83.6216 69.3066H79.5531C79.3688 69.3066 79.2734 69.402 79.2734 69.5864V79.4779C79.2734 79.6622 79.3688 79.7576 79.5531 79.7576H83.6895ZM82.0557 71.6736H83.5729C84.3697 71.6736 84.6345 72.0211 84.6345 72.5106C84.6345 72.9874 84.3697 73.3624 83.5729 73.3624H82.0557V71.6736ZM82.0557 75.4497H83.6344C84.4523 75.4497 84.7299 75.8735 84.7299 76.4308C84.7299 76.969 84.4523 77.3907 83.6344 77.3907H82.0557V75.4497Z" fill="#F4F6FC"/>
<path d="M28.5898 86.4079C28.5898 86.2214 28.6195 86.0392 28.6831 85.8569C28.7509 85.6705 28.8462 85.5052 28.9713 85.3568C29.0942 85.2106 29.2467 85.092 29.429 85.0009C29.6154 84.9119 29.8231 84.8652 30.0562 84.8652C30.3317 84.8652 30.5669 84.9288 30.7597 85.0517C30.9568 85.1767 31.1009 85.3399 31.192 85.5433L30.9547 85.6874C30.9038 85.5857 30.8402 85.5009 30.7682 85.4331C30.7004 85.3611 30.6241 85.3039 30.5393 85.2636C30.4588 85.2191 30.3783 85.1873 30.2935 85.1704C30.2088 85.1492 30.124 85.1365 30.0392 85.1365C29.8528 85.1365 29.6854 85.1767 29.5392 85.2551C29.3972 85.3293 29.2785 85.4289 29.1832 85.5518C29.0857 85.6705 29.0136 85.8061 28.9628 85.9586C28.9162 86.1112 28.895 86.268 28.895 86.4248C28.895 86.5943 28.9225 86.7596 28.9797 86.9164C29.0412 87.0754 29.1238 87.2173 29.2255 87.3402C29.3273 87.4589 29.448 87.5564 29.59 87.6284C29.7299 87.6962 29.8824 87.7301 30.0477 87.7301C30.1367 87.7301 30.2278 87.7195 30.319 87.6962C30.408 87.675 30.497 87.6411 30.5817 87.5945C30.6665 87.5437 30.7449 87.4843 30.819 87.4165C30.8911 87.3445 30.9547 87.2555 31.0055 87.1538L31.2598 87.2809C31.2089 87.3996 31.1369 87.5055 31.0479 87.5945C30.9568 87.6793 30.8551 87.7534 30.7428 87.8149C30.6347 87.8785 30.5181 87.9251 30.3952 87.959C30.2702 87.9865 30.1494 88.0014 30.0308 88.0014C29.821 88.0014 29.626 87.9569 29.4459 87.8658C29.27 87.7704 29.1175 87.6496 28.9882 87.5013C28.8632 87.3487 28.7636 87.1792 28.6916 86.9927C28.6237 86.802 28.5898 86.6071 28.5898 86.4079Z" fill="#F4F6FC"/>
<path d="M33.9894 88.0001C33.7733 88.0001 33.5762 87.9556 33.3961 87.8645C33.2139 87.7755 33.0592 87.6568 32.9299 87.5085C32.8049 87.3623 32.7096 87.1949 32.6418 87.0084C32.5739 86.8177 32.54 86.6248 32.54 86.432C32.54 86.2244 32.5761 86.0252 32.6502 85.8387C32.7223 85.648 32.824 85.4806 32.9554 85.3386C33.0846 85.1924 33.2372 85.0758 33.4131 84.9911C33.5932 84.9021 33.786 84.8555 33.9894 84.8555C34.2035 84.8555 34.4005 84.9042 34.5828 84.9996C34.7629 85.0907 34.9155 85.2093 35.0405 85.3556C35.1634 85.5039 35.2608 85.6734 35.3287 85.8641C35.4007 86.0506 35.4388 86.2413 35.4388 86.432C35.4388 86.6418 35.4007 86.8389 35.3287 87.0253C35.2545 87.2118 35.1528 87.3792 35.0235 87.5254C34.8921 87.6674 34.7375 87.7839 34.5573 87.8729C34.3815 87.9577 34.1929 88.0001 33.9894 88.0001ZM32.8452 86.432C32.8452 86.5973 32.8706 86.7583 32.9215 86.9151C32.9766 87.0677 33.0571 87.2076 33.1588 87.3305C33.2605 87.4491 33.3792 87.5466 33.5148 87.6187C33.6546 87.6865 33.8136 87.7204 33.9894 87.7204C34.1632 87.7204 34.3221 87.6843 34.4641 87.6102C34.604 87.5318 34.7226 87.4322 34.8201 87.3135C34.9218 87.1906 34.9981 87.0508 35.0489 86.8982C35.104 86.7456 35.1337 86.5909 35.1337 86.432C35.1337 86.2625 35.104 86.1014 35.0489 85.9489C34.9917 85.7921 34.9133 85.6522 34.8116 85.5336C34.7099 85.4149 34.587 85.3195 34.4471 85.2454C34.3115 85.1733 34.159 85.1352 33.9894 85.1352C33.8136 85.1352 33.6546 85.1754 33.5148 85.2538C33.3728 85.328 33.252 85.4276 33.1503 85.5505C33.0528 85.6692 32.9766 85.8048 32.9215 85.9574C32.8706 86.1099 32.8452 86.2688 32.8452 86.432Z" fill="#F4F6FC"/>
<path d="M39.7148 87.9746V85.4318L38.5875 87.3982H38.4095L37.2822 85.4318V87.9746H36.9771V84.8809H37.2907L38.4943 86.9999L39.7148 84.8809H40.02V87.9746H39.7148Z" fill="#F4F6FC"/>
<path d="M44.498 87.9746V85.4318L43.3707 87.3982H43.1927L42.0654 85.4318V87.9746H41.7603V84.8809H42.0739L43.2775 86.9999L44.498 84.8809H44.8032V87.9746H44.498Z" fill="#F4F6FC"/>
<path d="M47.7978 87.7203C47.9885 87.7203 48.1496 87.6843 48.2809 87.6101C48.4102 87.5381 48.5119 87.4406 48.5861 87.322C48.6645 87.1991 48.7175 87.0592 48.7471 86.9066C48.781 86.7541 48.798 86.5994 48.798 86.4405V84.8809H49.1031V86.4405C49.1031 86.6502 49.0798 86.8473 49.0353 87.0338C48.9887 87.2202 48.9124 87.3876 48.8065 87.5339C48.7047 87.6758 48.5691 87.7881 48.3996 87.8729C48.2343 87.9577 48.0351 88 47.7978 88C47.5541 88 47.3486 87.9555 47.1791 87.8644C47.0138 87.7754 46.8824 87.6589 46.7807 87.5169C46.679 87.3707 46.6048 87.2033 46.5603 87.0168C46.52 86.8303 46.501 86.6396 46.501 86.4405V84.8809H46.7976V86.4405C46.7976 86.6057 46.8104 86.7625 46.84 86.9151C46.8739 87.0677 46.929 87.2033 47.0095 87.322C47.0879 87.4406 47.1897 87.5381 47.3147 87.6101C47.4439 87.6843 47.605 87.7203 47.7978 87.7203Z" fill="#F4F6FC"/>
<path d="M51.0996 85.4488V87.9746H50.7944V84.8809H51.0318L53.0745 87.4576V84.8893H53.3796V87.9746H53.1169L51.0996 85.4488Z" fill="#F4F6FC"/>
<path d="M55.1196 87.9746V84.8809H55.4248V87.9746H55.1196Z" fill="#F4F6FC"/>
<path d="M59.3556 85.1521H58.2537V87.9746H57.9486V85.1521H56.8467V84.8809H59.3556V85.1521Z" fill="#F4F6FC"/>
<path d="M60.7961 84.8809L61.8047 86.5422L62.8218 84.8809H63.1524L61.9573 86.8219V87.9746H61.6522V86.8134L60.457 84.8809H60.7961Z" fill="#F4F6FC"/>
</svg>
