<svg width="546" height="494" viewBox="0 0 546 494" fill="none" xmlns="http://www.w3.org/2000/svg">
<path d="M410.773 494C410.773 483.45 410.773 451.778 410.773 451.778C410.773 447.007 413.089 442.561 416.938 439.75C427.11 432.325 436.789 424.048 445.864 414.966C478.314 382.487 500.436 342.427 510.607 298.783C510.629 298.693 510.708 298.626 510.808 298.626L518.686 298.357C527.727 297.976 536.768 297.663 545.799 297.259C546.067 297.248 546.067 296.845 545.799 296.823C536.757 296.42 527.716 296.106 518.686 295.725L511.614 295.479C511.48 295.479 511.39 295.356 511.413 295.221C515.094 278.288 516.996 260.828 516.996 243.077C516.996 156.953 472.551 77.6721 394.514 31.4633C376.454 20.7678 356.895 12.805 336.529 7.74288C249.63 -13.872 163.302 10.6099 102.945 70.6613C58.5891 114.787 32.8416 174.581 31.3534 237.152C30.8835 256.908 32.7745 276.339 36.8476 295.132C36.87 295.255 36.7805 295.378 36.6462 295.389L27.2916 295.703C18.2615 296.072 9.23148 296.397 0.201414 296.789C-0.067138 296.8 -0.067138 297.203 0.201414 297.226C9.23148 297.618 18.2615 297.943 27.2916 298.312L37.4742 298.659C37.5637 298.659 37.6532 298.727 37.6756 298.816C50.1521 352.271 80.5545 400.339 125.895 435.684C159.844 462.149 200.441 478.948 243.163 484.212C290.887 490.091 337.48 482.274 378.703 462.563C378.781 462.53 378.882 462.541 378.938 462.608M48.0149 243.099C48.0149 121.126 144.917 21.3838 265.721 16.9264C394.939 12.1667 502.506 117.721 500.234 247.12C499.943 263.471 497.918 279.396 494.326 294.728C494.304 294.829 494.214 294.896 494.113 294.896L486.874 294.65C476.266 294.258 465.658 294.023 455.05 293.709L430.388 293.015C428.811 292.97 427.58 291.66 427.613 290.092L428.341 258.543L429.113 220.039L429.762 181.536L430.31 143.032L430.355 140.008C430.433 134.823 424.2 132.146 420.497 135.775L418.214 138.015L379.565 175.88C366.73 188.547 353.84 201.157 341.039 213.868C328.238 226.58 315.392 239.235 302.636 251.98L270.398 284.167C270.32 284.246 270.186 284.246 270.096 284.167L239.224 253.369L202.175 216.646L165.014 180.046L127.719 143.57L120.423 136.436C118.622 134.677 115.6 135.976 115.645 138.496L115.791 148.52L116.328 185.646L116.966 222.772L117.715 259.898L118.376 288.266C118.431 290.853 116.395 292.992 113.821 293.071L90.9608 293.709C80.353 294.023 69.7452 294.258 59.1374 294.65L54.9749 294.796C54.4042 294.818 53.9007 294.426 53.7776 293.877C50.0066 277.56 48.0149 260.559 48.0149 243.099ZM410.773 419.96V227.823C410.773 227.722 410.706 200.608 410.616 187.729C410.605 186.105 408.624 185.332 407.517 186.508L395.566 199.096C394.704 200.004 394.212 201.202 394.201 202.456C394.111 210.072 394.033 227.733 394.033 227.834V432.974C394.033 434.184 393.418 435.304 392.388 435.931C389.725 437.577 387.028 439.168 384.287 440.713C382.91 441.486 381.187 441.239 380.068 440.119L142.086 201.907C140.374 200.194 137.454 201.403 137.454 203.823V363.986C137.454 368.286 140.934 371.769 145.231 371.769H179.326C183.376 371.769 186.655 368.488 186.655 364.434V359.64C186.655 357.087 184.585 355.026 182.045 355.026H154.395C154.283 355.026 154.182 354.937 154.182 354.813V321.338C154.182 319.714 155.503 318.393 157.125 318.393H176.103C178.14 318.393 179.796 316.735 179.796 314.697V304.438C179.796 302.893 178.542 301.638 176.998 301.638H157.013C155.447 301.638 154.182 300.373 154.182 298.805V243.166C154.182 241.15 156.622 240.131 158.054 241.565L364.425 448.116C365.242 448.933 364.985 450.322 363.933 450.781C336.395 462.754 306.026 469.406 274.136 469.406C169.266 469.406 80.8454 397.584 55.3889 300.507C55.2322 299.903 55.7022 299.298 56.34 299.32L59.1262 299.41C69.734 299.802 80.3418 300.026 90.9496 300.35L122.773 301.235C125.045 301.302 126.924 299.511 126.98 297.237V297.024L127.842 259.898L128.592 222.772L129.23 185.646L129.42 172.173C129.453 169.687 132.474 168.477 134.22 170.258L154.272 190.798L190.84 227.991L227.531 265.072L264.334 302.042L270.085 307.821C270.163 307.899 270.298 307.899 270.387 307.821L276.15 302.042L314.351 263.728C327.096 250.961 339.741 238.104 352.43 225.292C365.13 212.491 377.73 199.589 390.385 186.732L409.139 167.559C411.813 164.826 416.457 166.685 416.513 170.504L416.67 181.536L417.319 220.039L418.091 258.543L418.986 297.047V297.259C419.042 299.533 420.933 301.336 423.204 301.28L455.028 300.384C465.636 300.071 476.244 299.824 486.851 299.443L492.927 299.231C493.073 299.231 493.173 299.354 493.14 299.499C480.563 348.407 452.007 390.954 413.414 421.248C412.35 422.1 410.773 421.327 410.773 419.96Z" fill="#FF4AAB"/>
</svg>
