<svg width="42" height="38" viewBox="0 0 42 38" fill="none" xmlns="http://www.w3.org/2000/svg">
<path d="M31.5979 38C31.5979 37.1885 31.5979 34.7522 31.5979 34.7522C31.5979 34.3852 31.7761 34.0432 32.0722 33.8269C32.8546 33.2557 33.5991 32.6191 34.2972 31.9204C36.7934 29.4221 38.495 26.3405 39.2775 22.9833C39.2792 22.9764 39.2852 22.9712 39.293 22.9712L39.8989 22.9505C40.5944 22.9212 41.2899 22.8971 41.9845 22.8661C42.0052 22.8653 42.0052 22.8342 41.9845 22.8325C41.289 22.8015 40.5935 22.7774 39.8989 22.7481L39.3549 22.7291C39.3446 22.7291 39.3377 22.7197 39.3394 22.7093C39.6226 21.4067 39.769 20.0637 39.769 18.6982C39.769 12.0733 36.3501 5.97478 30.3472 2.42025C28.958 1.59753 27.4534 0.985002 25.8869 0.595606C19.2023 -1.06708 12.5617 0.816149 7.91885 5.43549C4.50686 8.82978 2.52628 13.4293 2.4118 18.2425C2.37565 19.7621 2.52112 21.2568 2.83443 22.7024C2.83615 22.7119 2.82927 22.7214 2.81894 22.7222L2.09935 22.7464C1.40473 22.7748 0.710114 22.7998 0.0154934 22.8299C-0.00516446 22.8308 -0.00516446 22.8618 0.0154934 22.8635C0.710114 22.8937 1.40473 22.9187 2.09935 22.9471L2.88263 22.9738C2.88952 22.9738 2.8964 22.979 2.89812 22.9859C3.85785 27.0978 6.1965 30.7953 9.68423 33.5142C12.2957 35.5499 15.4185 36.8421 18.7048 37.2471C22.3759 37.6993 25.96 37.098 29.131 35.5818C29.137 35.5792 29.1448 35.5801 29.1491 35.5852M3.69345 18.6999C3.69345 9.31738 11.1475 1.64491 20.4401 1.30203C30.38 0.935897 38.6543 9.05549 38.4795 19.0092C38.4572 20.267 38.3014 21.492 38.0251 22.6714C38.0234 22.6792 38.0165 22.6843 38.0087 22.6843L37.4518 22.6654C36.6358 22.6352 35.8199 22.6171 35.0039 22.593L33.1068 22.5396C32.9854 22.5362 32.8908 22.4354 32.8933 22.3148L32.9493 19.8879L33.0087 16.9261L33.0586 13.9643L33.1008 11.0025L33.1042 10.7699C33.1102 10.371 32.6308 10.1651 32.3459 10.4442L32.1703 10.6165L29.1973 13.5292C28.21 14.5036 27.2184 15.4736 26.2338 16.4514C25.2491 17.4292 24.2609 18.4027 23.2797 19.3831L20.7999 21.859C20.7938 21.8651 20.7835 21.8651 20.7766 21.859L18.4018 19.4899L15.5519 16.6651L12.6934 13.8497L9.82453 11.0438L9.26333 10.495C9.12475 10.3598 8.89234 10.4597 8.89579 10.6536L8.90698 11.4246L8.94829 14.2805L8.99735 17.1363L9.05502 19.9922L9.10581 22.1743C9.11011 22.3733 8.95346 22.5379 8.75549 22.5439L6.99699 22.593C6.181 22.6171 5.36502 22.6352 4.54903 22.6654L4.22884 22.6766C4.18494 22.6783 4.1462 22.6482 4.13674 22.6059C3.84667 21.3507 3.69345 20.043 3.69345 18.6999ZM31.5979 32.3047V17.5248C31.5979 17.5171 31.5927 15.4314 31.5859 14.4407C31.585 14.3158 31.4326 14.2563 31.3474 14.3468L30.4282 15.3151C30.3619 15.3849 30.324 15.4771 30.3232 15.5736C30.3163 16.1594 30.3102 17.518 30.3102 17.5257V33.3057C30.3102 33.3988 30.2629 33.4849 30.1837 33.5331C29.9788 33.6598 29.7714 33.7821 29.5605 33.901C29.4547 33.9604 29.3221 33.9415 29.236 33.8553L10.9297 15.5313C10.798 15.3995 10.5734 15.4926 10.5734 15.6787V27.9989C10.5734 28.3297 10.8411 28.5976 11.1716 28.5976H13.7943C14.1059 28.5976 14.3581 28.3452 14.3581 28.0334V27.6646C14.3581 27.4682 14.1988 27.3097 14.0034 27.3097H11.8765C11.8679 27.3097 11.8602 27.3028 11.8602 27.2933V24.7183C11.8602 24.5934 11.9618 24.4918 12.0866 24.4918H13.5464C13.703 24.4918 13.8304 24.3643 13.8304 24.2075V23.4183C13.8304 23.2994 13.734 23.203 13.6152 23.203H12.078C11.9575 23.203 11.8602 23.1056 11.8602 22.985V18.7051C11.8602 18.55 12.0478 18.4716 12.158 18.5819L28.0327 34.4705C28.0955 34.5333 28.0757 34.6402 27.9948 34.6755C25.8765 35.5964 23.5405 36.1082 21.0874 36.1082C13.0205 36.1082 6.21888 30.5834 4.26068 23.1159C4.24863 23.0694 4.28478 23.0229 4.33384 23.0246L4.54817 23.0315C5.36415 23.0617 6.18014 23.0789 6.99613 23.1039L9.44408 23.1719C9.61881 23.1771 9.76342 23.0393 9.76772 22.8644V22.848L9.834 19.9922L9.89167 17.1363L9.94073 14.2805L9.95536 13.2441C9.95795 13.0528 10.1903 12.9598 10.3246 13.0968L11.8671 14.6767L14.68 17.5378L17.5024 20.3902L20.3334 23.234L20.7758 23.6785C20.7818 23.6845 20.7921 23.6845 20.799 23.6785L21.2423 23.234L24.1809 20.2868C25.1613 19.3047 26.1339 18.3157 27.11 17.3301C28.0869 16.3455 29.0561 15.353 30.0296 14.364L31.4722 12.8891C31.678 12.6789 32.0352 12.8219 32.0395 13.1157L32.0515 13.9643L32.1014 16.9261L32.1608 19.8879L32.2297 22.8497V22.8661C32.234 23.041 32.3795 23.1797 32.5542 23.1754L35.0022 23.1065C35.8181 23.0823 36.6341 23.0634 37.4501 23.0341L37.9175 23.0177C37.9287 23.0177 37.9364 23.0272 37.9338 23.0384C36.9664 26.8006 34.7697 30.0734 31.801 32.4037C31.7193 32.4692 31.5979 32.4098 31.5979 32.3047Z" fill="white"/>
</svg>
